<svg xmlns="http://www.w3.org/2000/svg" viewBox="0 0 507.26 384.35"><defs><style>.cls-1,.cls-3{fill:#231815;}.cls-2,.cls-3{fill-rule:evenodd;}</style></defs><g id="レイヤー_2" data-name="レイヤー 2"><g id="logo"><path class="cls-1" d="M65.33,341.84a21,21,0,0,1-2.79-6.51,26.67,26.67,0,0,1-.73-5.91V232.5a20.92,20.92,0,0,1,4.55-13.67q4.56-5.58,14.27-9.73L28,209.3,0,224l24.9,45-7.2-40.54,16.46-9.71h9.5c-.44.51-.88,1-1.28,1.52a25,25,0,0,0-4.76,7.56q-1.86,4.46-1.87,14.6v87.2a22.91,22.91,0,0,1-4.64,14.08c-3.12,4.15-7.83,7.59-14.18,10.36h63.7a35.82,35.82,0,0,1-9.72-5.7A25.13,25.13,0,0,1,65.33,341.84Zm-43.23-81L5.3,225.46l4.06-1.92Zm35.67,80.38a7,7,0,0,1-3-5.95V227.84l8.46-10,.08-.09-.08.09c-.45.53-2.87,3.69-4.19,10.52-.66,3.38-.68,7.72-.68,13v85.84a66.37,66.37,0,0,0,.17,8,9.38,9.38,0,0,0,2,4.69Z"/><path class="cls-1" d="M476.15,343.71a22.92,22.92,0,0,1-4.65-14.08v-87.2q0-10.14-1.87-14.6a25,25,0,0,0-4.75-7.56c-.4-.5-.85-1-1.29-1.52h9.5l16.47,9.71L482.36,269l24.9-45-28-14.74-52.66-.2q9.72,4.14,14.27,9.73a20.92,20.92,0,0,1,4.56,13.67v96.92a27.28,27.28,0,0,1-.73,5.91,21,21,0,0,1-2.79,6.51,25.13,25.13,0,0,1-5.58,6.53,36,36,0,0,1-9.73,5.7h63.71C484,351.3,479.27,347.86,476.15,343.71ZM502,225.46l-16.8,35.42,12.75-37.34ZM452.49,335.31a7,7,0,0,1-3,5.95l-2.77-1.36a9.32,9.32,0,0,0,2-4.69,66.37,66.37,0,0,0,.17-8V241.35c0-5.25,0-9.59-.67-13-1.33-6.83-3.75-10-4.19-10.52l-.08-.09.08.09,8.46,10Z"/><path class="cls-1" d="M307.3,214l5-4.91h-44l12.9,6V346.42h-17.5q-7.69,0-15.46-5.39a64,64,0,0,1-14.5-14.2,109.6,109.6,0,0,1-12-20.17,114,114,0,0,1-8-23.43,92.09,92.09,0,0,1-2.2-23.9,53.85,53.85,0,0,1,5.08-21.42,74.52,74.52,0,0,1,12.49-21.12L238,209.1H189.62l14.22,4.9c2.38,1.1,5.78,1.72,6.3,3.25a5.26,5.26,0,0,1-1,4.8c-8,9.35-14.47,26.17-17.36,36A74.06,74.06,0,0,0,189,286.69a73,73,0,0,0,1.6,9.39,93,93,0,0,0-14.87-11.41,172,172,0,0,0-20.94-11A183.66,183.66,0,0,0,133,265.56c-5.81-1.73-11.28-3.16-16.44-4.33V216.87q16,.57,27.28,6,12.59,6.06,18.15,15.08a28.44,28.44,0,0,1,3.08,6.91,41.93,41.93,0,0,1,1.54,8,46.68,46.68,0,0,1,0,8.36A38.11,38.11,0,0,1,165,269l2.88,1q10.74-10.17,10.75-22.47,0-11.52-5.47-18.92a39.65,39.65,0,0,0-13.83-11.71,63,63,0,0,0-18.44-6,114.46,114.46,0,0,0-19.29-1.73H81.48l9,6v133l-8.94,6,3.81,0h40.13l-8.94-5.33V265.51c3.53.68,6.75,1.36,9.62,2.07a90.34,90.34,0,0,1,11,3.45,92.48,92.48,0,0,1,10.18,4.71q5,2.7,10.76,6.53a86,86,0,0,1,18.24,15.56,46.63,46.63,0,0,1,9.79,17.67,58.33,58.33,0,0,1,1.92,12.38,64.35,64.35,0,0,1-.67,13.64,49,49,0,0,1-3.75,12.77,27,27,0,0,1-7.29,9.79q-10.75,10.76-24.58,12.39t-29-3.94a58.09,58.09,0,0,1-13.64-8.64q-1-1.15-2-.57c-.71.38-.74,1-.1,1.91a38.59,38.59,0,0,0,10.27,7.88,67.39,67.39,0,0,0,12.78,5.28,82.86,82.86,0,0,0,13.63,2.89,105.36,105.36,0,0,0,12.87.86A61.37,61.37,0,0,0,192,370.33a49.2,49.2,0,0,0,12.58-13.83,36.59,36.59,0,0,0,5.19-18.73,53.23,53.23,0,0,0-.38-7.2c1.18,1.25,2.39,2.48,3.65,3.65a78.12,78.12,0,0,0,22.09,14.5,62.08,62.08,0,0,0,25.16,5.37h48.4l-1.39-2.51ZM97.65,341.26H93.83V216.81l3.82,2.73Zm108,0a23,23,0,0,1-2.8,11,46.27,46.27,0,0,1-7.62,10,23.74,23.74,0,0,1-7.7,5.05,48.37,48.37,0,0,0,6.81-6.77,34.3,34.3,0,0,0,4.13-7.4,38.34,38.34,0,0,0,2-7.83c1.57-9.66.29-24.17.29-24.17l4.89,6.4Zm12.52-8.32c-2.41-1.95-4.88-4.45-7.31-6.8a71.39,71.39,0,0,1-6.74-7.83c-4.54-5.81-7.94-13.83-9.59-21.43a85.71,85.71,0,0,1-1.7-21.48s2.36,15.78,8.92,29.19a95.87,95.87,0,0,0,8.17,14.12c7.07,9.72,15.27,19.12,15.28,19.12A58.63,58.63,0,0,1,218.18,332.94Zm86.06,8.32h-3.82V219.54l3.82-2.73Z"/><path class="cls-1" d="M434.77,329.32a77.23,77.23,0,0,0-8-23.71,109.88,109.88,0,0,0-13.06-19.11,180.7,180.7,0,0,0-15.37-15.94q-8-7.31-14.88-14.21l35.91-39.56,6.35-7.69H387.33l17.86,7.69-57.12,59.66V214l5.46-4.85h-43l11.51,6V349.7l-4.4,4.39h43L348.07,348V292.44l18.52-19c1,0,3,.74,5.86,2.21a103.84,103.84,0,0,1,10.08,6.05q5.76,3.84,12.29,9A128.78,128.78,0,0,1,407.21,302a101.22,101.22,0,0,1,10.46,12.68,46,46,0,0,1,6.54,13.16,56.29,56.29,0,0,1,2.4,16.22,64.68,64.68,0,0,1-1.73,14.31A77.31,77.31,0,0,1,420.65,371q-2.58,6-4.9,11.33c-.64,1.41-.48,2.07.49,2s2.2-1.19,3.74-3.36,3.52-5.13,5.57-8.46A65,65,0,0,0,431,361.1a73.56,73.56,0,0,0,3.65-14.39A63,63,0,0,0,434.77,329.32ZM329,341.26h-3.82V216.81l3.82,2.73Zm83.55-45.69A162,162,0,0,0,399,282.13c-3.92-3.63-7.52-6.61-9.74-8.27-1.5-1.11-12.83-10.51-12.83-10.51l4.4-4.89s6.51,6.23,14.1,13.29c5,4.63,8.81,8.41,12.69,12.46a80.79,80.79,0,0,1,8.74,11.1,149,149,0,0,1,8.1,13.49l1.34,2.62S419.85,304,412.59,295.57Z"/><path class="cls-2" d="M160.32,193.2l188.13-.07s-16.07-1.92-39.05-3c-19.86-.95-44-1.11-55.22-1.11C230.07,189,160.32,193.2,160.32,193.2Z"/><path class="cls-3" d="M358,98.31c1.5,9.16-9.83,26.92-18.45,38.85-.7-3.07-2.26-7.66-1.93-13.91,0,.36.7.18,1.08.18a3.71,3.71,0,1,0-3.71-3.7,3.67,3.67,0,0,0,1.81,3.16c-3.06,4.37-16.21,16.59-16.21,16.59a4.86,4.86,0,0,1-1.36-.53c3.46-13.5,8.91-31.17,16.77-36.51L325,79.68,303.63,94.42c5,8.54.49,29.73-3.28,43.42-.53.26-1.1.49-1.69.72-2.74-6.59-9.75-19.72-9.46-26.81a3.42,3.42,0,0,0,1.1-.07,3.72,3.72,0,1,0-2-.09c-2.23,5.51-14.5,21.07-22.76,25.89-.55-22.4,11-59,22.71-71.25,0,0-14.91-11.6-19.11-16.3-3.23-3.62-9.45-13.37-12.89-18.88a7.09,7.09,0,0,0,2-12l-2.43-7.49,6.72,2.18V5.18l-6.68,2.16L258.25,0H249l2.37,7.34-6.67-2.16v8.58l6.73-2.18L249,19.07a7.09,7.09,0,0,0,2,12c-3.43,5.51-9.65,15.26-12.89,18.88-4.2,4.7-19.1,16.3-19.1,16.3,11.67,12.29,23.26,48.85,22.71,71.25-8.27-4.82-20.53-20.38-22.77-25.89a3.7,3.7,0,1,0-2,.09,3.42,3.42,0,0,0,1.1.07c.29,7.09-6.72,20.22-9.45,26.81-.6-.23-1.17-.46-1.7-.72-3.76-13.69-8.3-34.88-3.28-43.42L182.3,79.68l-11,22.76c7.86,5.34,13.32,23,16.77,36.51a4.75,4.75,0,0,1-1.35.53s-13.16-12.22-16.22-16.59a3.67,3.67,0,0,0,1.81-3.16,3.71,3.71,0,1,0-3.71,3.7c.38,0,1.1.18,1.08-.18.33,6.25-1.23,10.84-1.93,13.91-8.61-11.93-19.94-29.69-18.45-38.85l-29.91-6.7,3.8,5.39,2.95,4.18,2.39,3.39,3.23,4.57,2.17,3.09,3.36,4.76,27.3,38.71h29.13l.74,8.79c-3.54,2.69-10.32,5.34-22.4,2.51-8.28-1.94-14.44-7.29-18.86-13-4.23-6.57-9.29-17.66-9.29-17.66L141.38,139l13.91,38.82,3.93,13.26s23.25-3.76,64.59-5c10.65-.32,20.52-.46,29.82-.45s19.16.13,29.81.45c41.34,1.25,64.59,5,64.59,5L352,177.84,365.87,139l-2.52-2.68s-5.05,11.09-9.29,17.66c-4.42,5.71-10.58,11.06-18.86,13-12.17,2.85-18.95.14-22.48-2.56l1.17-8.74h28.78L370,117l3.36-4.76,2.18-3.09,3.23-4.57,2.39-3.39L384.07,97l3.81-5.39ZM128.67,99.82a1.36,1.36,0,0,1-1.51-1.18,1.36,1.36,0,1,1,2.69-.33A1.37,1.37,0,0,1,128.67,99.82Zm3.11,4.34a1.36,1.36,0,0,1-1.51-1.18,1.34,1.34,0,0,1,1.18-1.51,1.36,1.36,0,1,1,.33,2.69Zm3.11,4.34a1.36,1.36,0,1,1,1.17-1.51A1.35,1.35,0,0,1,134.89,108.5Zm3.11,4.35a1.37,1.37,0,0,1-1.52-1.18,1.36,1.36,0,1,1,1.52,1.18Zm3.1,4.34a1.36,1.36,0,1,1,1.18-1.51A1.36,1.36,0,0,1,141.1,117.19Zm3.11,4.34a1.36,1.36,0,1,1,1.18-1.51A1.36,1.36,0,0,1,144.21,121.53Zm3.11,4.35a1.36,1.36,0,0,1-.33-2.69,1.34,1.34,0,0,1,1.51,1.17A1.37,1.37,0,0,1,147.32,125.88Zm3.11,4.34a1.36,1.36,0,0,1-.33-2.69,1.34,1.34,0,0,1,1.51,1.18A1.36,1.36,0,0,1,150.43,130.22Zm3.11,4.34a1.36,1.36,0,1,1,1.18-1.51A1.36,1.36,0,0,1,153.54,134.56Zm3.11,4.34a1.36,1.36,0,1,1,1.18-1.51A1.36,1.36,0,0,1,156.65,138.9Zm3.11,4.35a1.36,1.36,0,0,1-1.51-1.18,1.35,1.35,0,1,1,2.68-.33A1.36,1.36,0,0,1,159.76,143.25Zm3.11,4.34a1.36,1.36,0,0,1-1.51-1.18,1.35,1.35,0,1,1,1.51,1.18Zm3.11,4.34a1.36,1.36,0,1,1,1.17-1.51A1.36,1.36,0,0,1,166,151.93Zm-4.87,37.2a1.33,1.33,0,1,1-.32-2.65,1.32,1.32,0,0,1,1.48,1.16A1.34,1.34,0,0,1,161.11,189.13Zm2-10.95-.66-1.49-1.62.17,1-1.32-1-1.32,1.62.17.66-1.49.66,1.49,1.63-.17-1,1.32,1,1.32-1.63-.17Zm3.26,10.18a1.34,1.34,0,1,1,1.16-1.49A1.35,1.35,0,0,1,166.33,188.36Zm5.23-.57a1.34,1.34,0,0,1-.33-2.65,1.32,1.32,0,0,1,1.49,1.16A1.34,1.34,0,0,1,171.56,187.79Zm5.25-.53a1.34,1.34,0,1,1-.33-2.65,1.34,1.34,0,0,1,.33,2.65Zm5.24-.52a1.34,1.34,0,1,1,1.16-1.49A1.34,1.34,0,0,1,182.05,186.74Zm5.24-.45a1.33,1.33,0,1,1-.32-2.65,1.32,1.32,0,0,1,1.48,1.16A1.34,1.34,0,0,1,187.29,186.29Zm5.26-.34a1.34,1.34,0,1,1,1.16-1.49A1.34,1.34,0,0,1,192.55,186Zm152.53,2.86a1.34,1.34,0,1,1,1.16-1.49A1.34,1.34,0,0,1,345.08,188.81Zm-1.84-14.59,1.63.17.66-1.49.66,1.49,1.63-.17-1,1.32,1,1.32-1.63-.17-.66,1.49-.66-1.49-1.63.17,1-1.32Zm-3.71,11.25a1.34,1.34,0,1,1-1.16,1.5A1.34,1.34,0,0,1,339.53,185.47Zm-5.24-.53a1.34,1.34,0,1,1-1.17,1.49A1.34,1.34,0,0,1,334.29,184.94Zm-5.25-.5a1.34,1.34,0,1,1-1.16,1.49A1.33,1.33,0,0,1,329,184.44Zm-7.12-93.82L323.6,98l-4.54,6.11-1.68-7.42ZM285.19,128.3l2.07,4.48-2.07,4.5-2.07-4.5Zm-3.26-63A1.67,1.67,0,1,1,280.26,67,1.68,1.68,0,0,1,281.93,65.29Zm-3,4.11a1.68,1.68,0,1,1-1.67,1.67A1.68,1.68,0,0,1,278.93,69.4Zm-2.06,4.73a1.67,1.67,0,1,1-1.67,1.67A1.67,1.67,0,0,1,276.87,74.13Zm-2.37,5.21A1.67,1.67,0,1,1,272.83,81,1.67,1.67,0,0,1,274.5,79.34Zm-2.36,5.38a1.67,1.67,0,1,1-1.67,1.68A1.68,1.68,0,0,1,272.14,84.72Zm-1.67,5.12a1.67,1.67,0,1,1-1.67,1.67A1.67,1.67,0,0,1,270.47,89.84Zm-1.67,5.23a1.67,1.67,0,1,1-1.67,1.67A1.67,1.67,0,0,1,268.8,95.07Zm-1.68,5a1.67,1.67,0,1,1-1.67,1.67A1.68,1.68,0,0,1,267.12,100.07Zm-1.67,5.22a1.67,1.67,0,1,1-1.67,1.67A1.67,1.67,0,0,1,265.45,105.29Zm-.87,5.57a1.67,1.67,0,1,1-1.67,1.67A1.67,1.67,0,0,1,264.58,110.86Zm-.8,5.35a1.67,1.67,0,1,1-1.67,1.67A1.67,1.67,0,0,1,263.78,116.21Zm-.87,6a1.67,1.67,0,1,1-1.67,1.67A1.67,1.67,0,0,1,262.91,122.18Zm-.8,6a1.68,1.68,0,1,1-1.67,1.68A1.68,1.68,0,0,1,262.11,128.17Zm0,5.58a1.67,1.67,0,1,1-1.67,1.67A1.67,1.67,0,0,1,262.11,133.75ZM250,21.79a1.67,1.67,0,1,1,1.67,1.67A1.67,1.67,0,0,1,250,21.79Zm3.68,18.37,4.86,10.58-4.86,10.58-4.87-10.58Zm0,36.7L251,71.07l2.67-5.78,2.66,5.78Zm2.66,9.53-2.66,5.79L251,86.39l2.67-5.78Zm-9.68,43.46a1.67,1.67,0,1,1-1.67-1.68A1.67,1.67,0,0,1,246.61,129.85Zm0,5.57a1.67,1.67,0,1,1-1.67-1.67A1.67,1.67,0,0,1,246.61,135.42Zm-.8-11.57a1.67,1.67,0,1,1-1.67-1.67A1.67,1.67,0,0,1,245.81,123.85ZM225.12,68.63A1.67,1.67,0,1,1,226.79,67,1.68,1.68,0,0,1,225.12,68.63Zm1.32,2.44a1.68,1.68,0,1,1,1.68,1.68A1.68,1.68,0,0,1,226.44,71.07Zm2.07,4.73a1.67,1.67,0,1,1,1.67,1.67A1.67,1.67,0,0,1,228.51,75.8ZM230.87,81a1.67,1.67,0,1,1,1.67,1.67A1.67,1.67,0,0,1,230.87,81Zm2.36,5.39a1.68,1.68,0,1,1,1.68,1.66A1.68,1.68,0,0,1,233.23,86.4Zm1.68,5.11a1.67,1.67,0,1,1,1.67,1.67A1.67,1.67,0,0,1,234.91,91.51Zm1.67,5.23a1.67,1.67,0,1,1,1.67,1.67A1.67,1.67,0,0,1,236.58,96.74Zm1.67,5a1.67,1.67,0,1,1,1.67,1.67A1.67,1.67,0,0,1,238.25,101.74Zm1.67,5.22a1.68,1.68,0,1,1,1.67,1.67A1.67,1.67,0,0,1,239.92,107Zm.88,5.57a1.67,1.67,0,1,1,1.67,1.67A1.67,1.67,0,0,1,240.8,112.53Zm.79,5.35a1.68,1.68,0,1,1,1.68,1.67A1.68,1.68,0,0,1,241.59,117.88ZM221.38,128.3l2.06,4.48-2.06,4.5-2.06-4.5Zm-36.3-37.68,4.54,6.11-1.68,7.42L183.39,98Zm6.45,37.15.69-3-2-2.69.59-2.63-1.91-2.58.68-3-2-2.7,1.16-5.11,3.13,4.2-.69,3,2,2.7-.6,2.62,1.92,2.58-.68,3,2,2.7L194.66,132ZM193.94,150l1.38-1.91-1.41-1.89,2.34.23.93-2.16,1,2.14,2.34-.27L199.12,148l1.4,1.89-2.34-.23-.93,2.16-1-2.15Zm3.87,35.66a1.34,1.34,0,0,1-.33-2.65,1.32,1.32,0,0,1,1.49,1.16A1.34,1.34,0,0,1,197.81,185.62Zm2.81-15L199,170.5l-.66,1.49-.66-1.49-1.63.17,1-1.32-1-1.32,1.63.18.66-1.5.66,1.5,1.62-.18-1,1.32Zm2.45,14.61a1.34,1.34,0,1,1-.33-2.65,1.33,1.33,0,0,1,1.49,1.16A1.34,1.34,0,0,1,203.07,185.28Zm5.26-.33a1.34,1.34,0,1,1,1.16-1.49A1.34,1.34,0,0,1,208.33,185Zm5.26-.23a1.35,1.35,0,0,1-1.49-1.16,1.34,1.34,0,1,1,2.65-.33A1.34,1.34,0,0,1,213.59,184.72Zm5.26-.21A1.34,1.34,0,1,1,220,183,1.34,1.34,0,0,1,218.85,184.51Zm5.27-.21a1.34,1.34,0,1,1,1.16-1.49A1.33,1.33,0,0,1,224.12,184.3Zm5.26-.2a1.34,1.34,0,0,1-.33-2.65,1.32,1.32,0,0,1,1.49,1.16A1.34,1.34,0,0,1,229.38,184.1Zm5.27-.1a1.34,1.34,0,1,1,1.16-1.49A1.34,1.34,0,0,1,234.65,184Zm5.27,0a1.36,1.36,0,0,1-1.5-1.16,1.34,1.34,0,1,1,1.5,1.16Zm5.27,0a1.34,1.34,0,1,1,1.16-1.49A1.35,1.35,0,0,1,245.19,184Zm3.23-19.47c-.53,7.92-20,5-33.69,4.58-6-.16-10-1.77-12.54-3.54l-.82-9.82H249C248.74,159.39,248.54,162.56,248.42,164.48Zm2,19.45a1.34,1.34,0,1,1-.33-2.65,1.31,1.31,0,0,1,1.48,1.16A1.34,1.34,0,0,1,250.46,183.93ZM252.79,171l-2.06.22,1.22-1.67-1.22-1.68,2.06.23.84-1.9.83,1.9,2.07-.23-1.23,1.68,1.23,1.67-2.07-.22-.83,1.9Zm2.93,12.91a1.34,1.34,0,0,1-.33-2.66,1.34,1.34,0,0,1,.33,2.66Zm-.86-36-1.19,2.77-1.24-2.75-3,.36,1.76-2.45-1.8-2.42,3,.3,1.19-2.77,1.24,2.75,3-.35-1.76,2.45,1.8,2.41Zm6.13,36a1.34,1.34,0,1,1,1.16-1.49A1.34,1.34,0,0,1,261,183.88Zm5.27,0a1.33,1.33,0,0,1-1.49-1.16,1.34,1.34,0,0,1,2.65-.33A1.34,1.34,0,0,1,266.26,183.86Zm5.27,0a1.36,1.36,0,0,1-1.5-1.16,1.34,1.34,0,1,1,1.5,1.16Zm5.26.09a1.33,1.33,0,1,1,1.16-1.49A1.34,1.34,0,0,1,276.79,184Zm5.27.11a1.34,1.34,0,1,1,1.16-1.49A1.34,1.34,0,0,1,282.06,184.11Zm5.27.18a1.34,1.34,0,1,1,1.16-1.49A1.35,1.35,0,0,1,287.33,184.29Zm5.26.22a1.34,1.34,0,1,1,1.16-1.49A1.34,1.34,0,0,1,292.59,184.51Zm5.26.26a1.34,1.34,0,0,1-.33-2.65,1.32,1.32,0,0,1,1.49,1.16A1.34,1.34,0,0,1,297.85,184.77Zm5.26.26a1.33,1.33,0,1,1-.32-2.65,1.32,1.32,0,0,1,1.48,1.16A1.34,1.34,0,0,1,303.11,185Zm1.74-19.38c-2.58,1.72-6.5,3.26-12.33,3.41-13.72.37-33.16,3.34-33.68-4.58-.13-1.92-.32-5.09-.55-8.78H306.2Zm3.52,19.68a1.34,1.34,0,1,1-.33-2.65,1.32,1.32,0,0,1,1.49,1.16A1.34,1.34,0,0,1,308.37,185.33Zm2.52-14.66-1.63-.17L308.6,172l-.66-1.49-1.63.17,1-1.32-1-1.32,1.63.18.66-1.5.66,1.5,1.63-.18-1,1.32Zm12.91,13.27a1.33,1.33,0,0,1,1.49,1.16,1.34,1.34,0,0,1-2.65.33A1.32,1.32,0,0,1,323.8,183.94Zm-5.24-.51a1.33,1.33,0,1,1-1.17,1.5A1.33,1.33,0,0,1,318.56,183.43ZM313.3,183a1.34,1.34,0,1,1-1.16,1.49A1.34,1.34,0,0,1,313.3,183Zm-1.63-33.37-.93,2.16-1-2.15-2.34.28,1.37-1.91-1.4-1.89,2.34.23.93-2.16,1,2.14,2.34-.27L312.6,148,314,149.9Zm5.12-27.61-2,2.69.69,3L312.34,132l-1.16-5.11,2-2.7-.68-3,1.91-2.58-.59-2.62,2-2.7-.69-3,3.13-4.2,1.16,5.11-2,2.7.68,3-1.91,2.58Zm24.07,29.87a1.36,1.36,0,1,1,1.18-1.51A1.36,1.36,0,0,1,340.86,151.93Zm3.11-4.34a1.36,1.36,0,1,1,1.18-1.51A1.36,1.36,0,0,1,344,147.59Zm3.11-4.34a1.36,1.36,0,1,1-.33-2.69,1.34,1.34,0,0,1,1.51,1.18A1.36,1.36,0,0,1,347.08,143.25Zm3.11-4.35a1.36,1.36,0,1,1,1.18-1.51A1.36,1.36,0,0,1,350.19,138.9Zm3.11-4.34a1.36,1.36,0,1,1,1.18-1.51A1.36,1.36,0,0,1,353.3,134.56Zm3.11-4.34a1.37,1.37,0,0,1-1.52-1.18,1.36,1.36,0,1,1,1.52,1.18Zm3.11-4.34A1.37,1.37,0,0,1,358,124.7a1.36,1.36,0,1,1,1.52,1.18Zm3.1-4.35A1.36,1.36,0,1,1,363.8,120,1.36,1.36,0,0,1,362.62,121.53Zm3.11-4.34a1.36,1.36,0,1,1,1.18-1.51A1.36,1.36,0,0,1,365.73,117.19Zm3.11-4.34a1.36,1.36,0,1,1-.33-2.69,1.34,1.34,0,0,1,1.51,1.18A1.36,1.36,0,0,1,368.84,112.85ZM372,108.5a1.36,1.36,0,1,1,1.18-1.51A1.36,1.36,0,0,1,372,108.5Zm3.11-4.34a1.36,1.36,0,1,1,1.18-1.51A1.36,1.36,0,0,1,375.06,104.16Zm3.11-4.34a1.36,1.36,0,1,1-.33-2.69,1.34,1.34,0,0,1,1.51,1.18A1.36,1.36,0,0,1,378.17,99.82Z"/></g></g></svg>