<svg xmlns="http://www.w3.org/2000/svg" viewBox="0 0 507.25 384.35"><defs><style>.cls-1,.cls-3{fill:#fff;}.cls-2{fill:#231815;}.cls-3{fill-rule:evenodd;}</style></defs><g id="レイヤー_2" data-name="レイヤー 2"><g id="logo"><path class="cls-1" d="M65.33,341.84a21.3,21.3,0,0,1-2.8-6.51,27.14,27.14,0,0,1-.72-5.9V232.5a20.87,20.87,0,0,1,4.55-13.66q4.55-5.59,14.27-9.74L28,209.3,0,224l24.9,45-7.2-40.54,16.46-9.7h9.5c-.44.5-.88,1-1.29,1.51a25.17,25.17,0,0,0-4.75,7.56q-1.87,4.46-1.87,14.6v87.21a22.91,22.91,0,0,1-4.64,14.07c-3.13,4.15-7.83,7.59-14.18,10.36h63.7a35.57,35.57,0,0,1-9.72-5.7A24.59,24.59,0,0,1,65.33,341.84Zm-43.23-81L5.3,225.46l4.06-1.92Zm41.21-43.11-.08.09A.39.39,0,0,1,63.31,217.77ZM57.76,341.26a7,7,0,0,1-3-5.94V227.84L63.12,218c-.64.82-2.84,4-4.08,10.39-.66,3.38-.68,7.72-.68,13v85.84a66.55,66.55,0,0,0,.17,8,9.27,9.27,0,0,0,2,4.68Z"/><path class="cls-2" d="M426.62,354.07h6.56c.33-1.28.62-2.59.88-3.95A39.42,39.42,0,0,1,426.62,354.07Z"/><path class="cls-1" d="M476.15,343.71a22.85,22.85,0,0,1-4.65-14.07V242.43q0-10.14-1.87-14.6a25,25,0,0,0-4.75-7.56c-.41-.5-.85-1-1.29-1.51h9.5l16.47,9.7L482.35,269l24.9-45-28-14.74-52.66-.2q9.72,4.14,14.27,9.74a20.87,20.87,0,0,1,4.55,13.66v96.93a27.14,27.14,0,0,1-.72,5.9,21.3,21.3,0,0,1-2.8,6.51,27.51,27.51,0,0,1-7.86,8.28c-.26,1.36-.55,2.67-.88,3.95h57.14C484,351.3,479.27,347.86,476.15,343.71ZM502,225.46l-16.8,35.42,12.74-37.34ZM452.49,335.32a7,7,0,0,1-3,5.94l-2.78-1.36a9.27,9.27,0,0,0,2-4.68,66.55,66.55,0,0,0,.17-8V241.35c0-5.25,0-9.59-.68-13-1.24-6.39-3.44-9.57-4.08-10.39l8.36,9.85Z"/><path class="cls-2" d="M310.51,209.1l1.19.62.64-.62Z"/><path class="cls-1" d="M307.3,214l4.4-4.29-1.19-.62H268.35l12.89,6V346.42H263.75q-7.69,0-15.47-5.38a64.26,64.26,0,0,1-14.49-14.21,109.29,109.29,0,0,1-12-20.16,114.43,114.43,0,0,1-8-23.43,92.66,92.66,0,0,1-2.21-23.91,54.11,54.11,0,0,1,5.09-21.42,75,75,0,0,1,12.48-21.12L238,209.1H189.62L203.84,214c2.38,1.09,5.78,1.71,6.3,3.25a5.24,5.24,0,0,1-1,4.79c-8,9.35-14.47,26.17-17.36,36a74.09,74.09,0,0,0-2.88,28.62,72.77,72.77,0,0,0,1.61,9.39,93,93,0,0,0-14.87-11.41,173.44,173.44,0,0,0-20.94-11A182.49,182.49,0,0,0,133,265.57c-5.81-1.74-11.28-3.17-16.45-4.34V216.87q16.05.58,27.29,6,12.59,6,18.15,15.07a28.44,28.44,0,0,1,3.08,6.91,41.15,41.15,0,0,1,1.53,8,44.9,44.9,0,0,1,0,8.36A37.34,37.34,0,0,1,165,269l2.87,1q10.76-10.17,10.76-22.47,0-11.52-5.47-18.92a39.65,39.65,0,0,0-13.83-11.71,63,63,0,0,0-18.44-6,114.48,114.48,0,0,0-19.3-1.73H81.48l9,6v133l-8.94,5.95,3.81,0h40.13l-9-5.34V265.51q5.31,1,9.63,2.07a88,88,0,0,1,11,3.46,91.77,91.77,0,0,1,10.19,4.71q5,2.69,10.75,6.52a86.34,86.34,0,0,1,18.25,15.56,46.71,46.71,0,0,1,9.79,17.67,59,59,0,0,1,1.92,12.39,64.92,64.92,0,0,1-.67,13.63,48.93,48.93,0,0,1-3.75,12.77,26.91,26.91,0,0,1-7.29,9.79q-10.75,10.77-24.58,12.4t-29-4a58.3,58.3,0,0,1-13.63-8.63c-.64-.77-1.31-1-2-.58s-.74,1-.1,1.92a38.77,38.77,0,0,0,10.27,7.87,68.27,68.27,0,0,0,12.77,5.29,84,84,0,0,0,13.64,2.88,105.36,105.36,0,0,0,12.87.86A61.44,61.44,0,0,0,192,370.33a49.06,49.06,0,0,0,12.58-13.83,36.58,36.58,0,0,0,5.19-18.72,53.29,53.29,0,0,0-.38-7.21c1.18,1.25,2.39,2.48,3.65,3.65a78.12,78.12,0,0,0,22.09,14.5,62.09,62.09,0,0,0,25.16,5.38h48.39l-1.38-2.52ZM97.65,341.26H93.83V216.82l3.82,2.73Zm108,0a23.13,23.13,0,0,1-2.8,11,46.34,46.34,0,0,1-7.62,10,23.78,23.78,0,0,1-7.68,5,49.49,49.49,0,0,0,6.78-6.76,34,34,0,0,0,4.14-7.4,38.34,38.34,0,0,0,2-7.83c1.57-9.65.29-24.17.29-24.17l4.89,6.4Zm12.52-8.32c-2.41-1.95-4.88-4.45-7.31-6.8a72.12,72.12,0,0,1-6.74-7.82c-4.54-5.82-7.94-13.83-9.59-21.44a85.71,85.71,0,0,1-1.7-21.48s2.36,15.78,8.92,29.19a95.36,95.36,0,0,0,8.17,14.12c7.06,9.72,15.27,19.12,15.27,19.12A56.74,56.74,0,0,1,218.18,332.94Zm86.06,8.32h-3.82V219.55l3.82-2.73Z"/><path class="cls-2" d="M310.51,209.1l1.19.62.64-.62Zm116.11,145h6.56c.33-1.28.62-2.59.88-3.95A39.42,39.42,0,0,1,426.62,354.07Z"/><path class="cls-1" d="M434.77,329.32a77.59,77.59,0,0,0-8-23.71,109.88,109.88,0,0,0-13.06-19.11,183.56,183.56,0,0,0-15.37-15.94q-8-7.31-14.88-14.21l35.91-39.56,6.35-7.69H387.33l17.86,7.69-57.12,59.66V214l5.46-4.85H312.34l-.64.62L322,215.08V349.7l-4.4,4.4h43L348.07,348V292.45l18.52-19c1,0,3,.74,5.86,2.21a103.84,103.84,0,0,1,10.08,6.05c3.83,2.56,7.94,5.57,12.29,9A128.76,128.76,0,0,1,407.21,302a101.29,101.29,0,0,1,10.46,12.67,46,46,0,0,1,6.53,13.16A55.61,55.61,0,0,1,426.6,344a63.67,63.67,0,0,1-1.73,14.32A76.55,76.55,0,0,1,420.65,371q-2.59,6-4.9,11.34c-.64,1.4-.48,2.07.49,2s2.2-1.18,3.74-3.36,3.51-5.12,5.57-8.46A65.9,65.9,0,0,0,431,361.11a63.92,63.92,0,0,0,2.16-7h-6.56a39.42,39.42,0,0,0,7.44-3.95c.23-1.11.43-2.25.61-3.41A63,63,0,0,0,434.77,329.32ZM329,341.26h-3.82V216.82l3.82,2.73Zm83.55-45.69A161.91,161.91,0,0,0,399,282.14c-3.92-3.64-7.52-6.62-9.74-8.28-1.5-1.11-12.83-10.51-12.83-10.51l4.4-4.89s6.5,6.23,14.1,13.29c5,4.63,8.8,8.41,12.69,12.46a80.88,80.88,0,0,1,8.74,11.11,147.15,147.15,0,0,1,8.09,13.48l1.35,2.62S419.85,304,412.59,295.57Z"/><path class="cls-3" d="M348.45,193.14l-188.13.06S230.07,189,254.18,189c11.2,0,35.36.17,55.22,1.12C332.37,191.21,348.45,193.14,348.45,193.14Z"/><path class="cls-3" d="M358,98.31c1.5,9.16-9.83,26.92-18.45,38.85-.7-3.06-2.26-7.65-1.93-13.89,0,.34.71.16,1.08.16a3.75,3.75,0,1,0-1.9-.54c-3.06,4.38-16.22,16.59-16.22,16.59a4.75,4.75,0,0,1-1.35-.53c3.45-13.5,8.91-31.17,16.77-36.5L325,79.68,303.63,94.42c5,8.54.48,29.73-3.28,43.42-.53.26-1.1.49-1.69.72-2.74-6.59-9.75-19.72-9.46-26.81a3.42,3.42,0,0,0,1.1-.07,3.72,3.72,0,1,0-2-.09c-2.23,5.52-14.5,21.07-22.76,25.9-.55-22.41,11-59,22.71-71.26,0,0-14.91-11.6-19.11-16.3-3.23-3.62-9.45-13.37-12.89-18.88a7.09,7.09,0,0,0,2-12l-2.43-7.49,6.72,2.18V5.18l-6.68,2.16L258.25,0H249l2.37,7.34-6.67-2.16v8.58l6.73-2.18L249,19.07a7,7,0,0,0-2.49,5.4A7.12,7.12,0,0,0,251,31.06c-3.44,5.5-9.66,15.25-12.89,18.87-4.2,4.7-19.11,16.3-19.11,16.3,11.68,12.29,23.26,48.85,22.71,71.26-8.26-4.83-20.53-20.38-22.76-25.9a3.7,3.7,0,1,0-2,.09,3.42,3.42,0,0,0,1.1.07c.29,7.09-6.72,20.22-9.46,26.81-.59-.23-1.16-.46-1.69-.72-3.76-13.69-8.3-34.88-3.28-43.42L182.3,79.68l-11,22.77c7.86,5.33,13.32,23,16.77,36.5a4.75,4.75,0,0,1-1.35.53s-13.16-12.21-16.22-16.59a3.67,3.67,0,0,0,1.81-3.16,3.71,3.71,0,1,0-3.71,3.7c.37,0,1.08.18,1.08-.16.33,6.24-1.23,10.83-1.93,13.89-8.62-11.93-19.94-29.69-18.45-38.85l-29.91-6.7,3.8,5.39,2.95,4.18,2.39,3.39,3.22,4.57,2.18,3.09,3.36,4.76,27.3,38.71h29.13l.74,8.8c-3.55,2.68-10.32,5.33-22.4,2.5-8.28-1.94-14.44-7.29-18.86-13-4.24-6.58-9.29-17.66-9.29-17.66L141.38,139l13.91,38.82,3.93,13.26s23.25-3.76,64.59-5c10.65-.32,20.52-.47,29.82-.46s19.16.14,29.81.46c41.34,1.24,64.59,5,64.59,5L352,177.84,365.87,139l-2.52-2.67A178.53,178.53,0,0,1,354.06,154c-4.42,5.7-10.58,11.05-18.86,13-12.17,2.85-19,.14-22.48-2.56l1.17-8.74h28.78L370,117l3.36-4.76,2.18-3.09,3.22-4.57,2.4-3.39L384.07,97l3.8-5.39ZM128.67,99.82a1.36,1.36,0,1,1-.34-2.69,1.36,1.36,0,0,1,.34,2.69Zm3.11,4.34a1.36,1.36,0,1,1,1.17-1.51A1.35,1.35,0,0,1,131.78,104.16Zm3.1,4.35a1.36,1.36,0,1,1-.33-2.69,1.34,1.34,0,0,1,1.51,1.17A1.37,1.37,0,0,1,134.88,108.51Zm3.11,4.34a1.36,1.36,0,0,1-.33-2.69,1.34,1.34,0,0,1,1.51,1.18A1.36,1.36,0,0,1,138,112.85Zm3.11,4.34a1.36,1.36,0,1,1,1.18-1.51A1.36,1.36,0,0,1,141.1,117.19Zm3.11,4.34a1.35,1.35,0,0,1-1.51-1.17,1.36,1.36,0,1,1,1.51,1.17Zm3.11,4.35a1.36,1.36,0,0,1-.33-2.69,1.34,1.34,0,0,1,1.51,1.18A1.36,1.36,0,0,1,147.32,125.88Zm3.11,4.34a1.36,1.36,0,0,1-.33-2.69,1.34,1.34,0,0,1,1.51,1.18A1.36,1.36,0,0,1,150.43,130.22Zm3.11,4.34a1.36,1.36,0,1,1,1.17-1.51A1.35,1.35,0,0,1,153.54,134.56Zm3.11,4.35a1.37,1.37,0,0,1-1.51-1.18,1.35,1.35,0,0,1,2.68-.34A1.36,1.36,0,0,1,156.65,138.91Zm3.11,4.34a1.36,1.36,0,1,1-.34-2.69,1.36,1.36,0,0,1,.34,2.69Zm3.11,4.34a1.36,1.36,0,1,1,1.17-1.51A1.35,1.35,0,0,1,162.87,147.59Zm3.11,4.34a1.36,1.36,0,1,1,1.17-1.51A1.35,1.35,0,0,1,166,151.93Zm-4.87,37.2a1.34,1.34,0,1,1,1.16-1.49A1.34,1.34,0,0,1,161.11,189.13Zm2-10.95-.66-1.49-1.63.17,1-1.32-1-1.32,1.63.18.66-1.5.66,1.5,1.63-.18-1,1.32,1,1.32-1.63-.17Zm3.25,10.19a1.34,1.34,0,1,1,1.16-1.49A1.34,1.34,0,0,1,166.32,188.37Zm5.24-.58a1.34,1.34,0,1,1,1.16-1.49A1.34,1.34,0,0,1,171.56,187.79Zm5.24-.52a1.34,1.34,0,1,1,1.16-1.49A1.34,1.34,0,0,1,176.8,187.27Zm5.24-.53a1.33,1.33,0,1,1,1.16-1.49A1.34,1.34,0,0,1,182,186.74Zm5.25-.45a1.34,1.34,0,1,1,1.16-1.49A1.34,1.34,0,0,1,187.29,186.29Zm5.26-.33a1.34,1.34,0,0,1-.33-2.66,1.34,1.34,0,0,1,.33,2.66Zm152.53,2.85a1.34,1.34,0,1,1,1.16-1.49A1.33,1.33,0,0,1,345.08,188.81Zm-1.84-14.59,1.63.18.66-1.5.66,1.5,1.63-.18-1,1.32,1,1.32-1.63-.17-.66,1.49-.66-1.49-1.63.17,1-1.32Zm-3.71,11.26a1.32,1.32,0,0,1,1.48,1.16,1.34,1.34,0,1,1-1.48-1.16Zm-5.24-.54a1.34,1.34,0,0,1,1.49,1.17,1.34,1.34,0,1,1-1.49-1.17Zm-5.25-.5a1.34,1.34,0,1,1-1.16,1.49A1.34,1.34,0,0,1,329,184.44Zm-7.12-93.82,1.68,7.43-4.54,6.11-1.68-7.43ZM285.19,128.3l2.07,4.49-2.07,4.49-2.07-4.49Zm-3.26-63A1.67,1.67,0,1,1,280.26,67,1.67,1.67,0,0,1,281.93,65.29Zm-3,4.11a1.68,1.68,0,1,1-1.67,1.68A1.68,1.68,0,0,1,278.93,69.4Zm-2.06,4.73a1.67,1.67,0,1,1-1.67,1.67A1.67,1.67,0,0,1,276.87,74.13Zm-2.37,5.21A1.67,1.67,0,1,1,272.83,81,1.68,1.68,0,0,1,274.5,79.34Zm-2.36,5.39a1.67,1.67,0,1,1-1.67,1.67A1.67,1.67,0,0,1,272.14,84.73Zm-1.67,5.11a1.67,1.67,0,1,1-1.67,1.67A1.67,1.67,0,0,1,270.47,89.84Zm-1.68,5.24a1.67,1.67,0,1,1-1.66,1.67A1.67,1.67,0,0,1,268.79,95.08Zm-1.67,5a1.68,1.68,0,1,1-1.67,1.68A1.67,1.67,0,0,1,267.12,100.07Zm-1.67,5.22a1.67,1.67,0,1,1-1.67,1.67A1.67,1.67,0,0,1,265.45,105.29Zm-.87,5.57a1.67,1.67,0,1,1-1.68,1.67A1.67,1.67,0,0,1,264.58,110.86Zm-.8,5.35a1.67,1.67,0,1,1-1.67,1.67A1.67,1.67,0,0,1,263.78,116.21Zm-.88,6a1.67,1.67,0,1,1-1.67,1.67A1.68,1.68,0,0,1,262.9,122.18Zm-.79,6a1.67,1.67,0,1,1-1.67,1.67A1.67,1.67,0,0,1,262.11,128.18Zm0,5.57a1.67,1.67,0,1,1-1.67,1.67A1.67,1.67,0,0,1,262.11,133.75ZM250,21.8a1.67,1.67,0,1,1,1.67,1.67A1.67,1.67,0,0,1,250,21.8Zm3.68,18.36,4.86,10.58-4.86,10.58-4.87-10.58Zm0,36.7L251,71.08l2.67-5.79,2.66,5.79Zm2.66,9.54-2.66,5.78L251,86.4l2.67-5.79Zm-9.68,43.45a1.68,1.68,0,1,1-1.67-1.67A1.67,1.67,0,0,1,246.61,129.85Zm0,5.57a1.68,1.68,0,1,1-1.67-1.67A1.67,1.67,0,0,1,246.61,135.42Zm-.8-11.57a1.67,1.67,0,1,1-1.67-1.67A1.67,1.67,0,0,1,245.81,123.85Zm-20.7-55.22A1.67,1.67,0,1,1,226.79,67,1.67,1.67,0,0,1,225.11,68.63Zm1.33,2.45a1.67,1.67,0,1,1,1.67,1.67A1.68,1.68,0,0,1,226.44,71.08Zm2.07,4.72a1.67,1.67,0,1,1,1.67,1.67A1.67,1.67,0,0,1,228.51,75.8ZM230.87,81a1.67,1.67,0,1,1,1.67,1.67A1.67,1.67,0,0,1,230.87,81Zm2.36,5.39a1.68,1.68,0,1,1,1.67,1.67A1.67,1.67,0,0,1,233.23,86.4Zm1.67,5.11a1.68,1.68,0,1,1,1.68,1.67A1.68,1.68,0,0,1,234.9,91.51Zm1.68,5.24a1.67,1.67,0,1,1,1.67,1.67A1.67,1.67,0,0,1,236.58,96.75Zm1.67,5a1.67,1.67,0,1,1,1.67,1.67A1.68,1.68,0,0,1,238.25,101.75Zm1.67,5.21a1.67,1.67,0,1,1,1.67,1.67A1.67,1.67,0,0,1,239.92,107Zm.88,5.57a1.67,1.67,0,1,1,1.67,1.67A1.67,1.67,0,0,1,240.8,112.53Zm.79,5.35a1.68,1.68,0,1,1,1.67,1.67A1.67,1.67,0,0,1,241.59,117.88ZM221.38,128.3l2.06,4.49-2.06,4.49-2.06-4.49ZM185.07,90.62l4.55,6.11-1.68,7.43-4.55-6.11Zm6.46,37.15.68-3-2-2.7.59-2.63-1.92-2.57.69-3-2-2.7,1.16-5.11,3.12,4.21-.68,3,2,2.7-.6,2.63,1.92,2.57-.68,3,2,2.7L194.66,132ZM193.94,150l1.38-1.91-1.41-1.89,2.34.24.93-2.17,1,2.15,2.34-.28L199.11,148l1.41,1.88-2.34-.23-.93,2.16-1-2.15Zm3.87,35.66a1.34,1.34,0,1,1,1.16-1.49A1.33,1.33,0,0,1,197.81,185.62Zm2.81-14.94L199,170.5l-.66,1.5-.66-1.5-1.63.18,1-1.33-1-1.32,1.63.18.66-1.5.66,1.5,1.62-.18-1,1.32Zm2.45,14.6a1.34,1.34,0,1,1,1.16-1.49A1.34,1.34,0,0,1,203.07,185.28Zm5.26-.33a1.34,1.34,0,1,1-.33-2.65,1.31,1.31,0,0,1,1.48,1.16A1.34,1.34,0,0,1,208.33,185Zm5.26-.23a1.35,1.35,0,0,1-1.5-1.16,1.34,1.34,0,0,1,2.66-.33A1.35,1.35,0,0,1,213.59,184.72Zm5.26-.21A1.34,1.34,0,1,1,220,183,1.34,1.34,0,0,1,218.85,184.51Zm5.27-.2a1.34,1.34,0,1,1-.33-2.66,1.34,1.34,0,0,1,.33,2.66Zm5.26-.21a1.34,1.34,0,1,1,1.16-1.49A1.34,1.34,0,0,1,229.38,184.1Zm5.27-.1a1.34,1.34,0,1,1,1.16-1.49A1.34,1.34,0,0,1,234.65,184Zm5.26,0a1.33,1.33,0,1,1-.32-2.65,1.31,1.31,0,0,1,1.48,1.16A1.34,1.34,0,0,1,239.91,184Zm5.27,0a1.33,1.33,0,1,1,1.16-1.49A1.34,1.34,0,0,1,245.18,184Zm-30.45-14.89c-6-.16-10-1.77-12.54-3.54l-.82-9.82H249c-.23,3.69-.42,6.86-.55,8.78C247.89,172.4,228.45,169.43,214.73,169.06Zm35.72,14.87a1.34,1.34,0,1,1,1.16-1.49A1.34,1.34,0,0,1,250.45,183.93ZM252.79,171l-2.06.23,1.22-1.68-1.22-1.67,2.06.22.84-1.9.83,1.9,2.06-.22-1.22,1.67,1.22,1.68-2.06-.23-.83,1.9Zm2.93,12.91a1.34,1.34,0,0,1-.33-2.65,1.32,1.32,0,0,1,1.49,1.16A1.34,1.34,0,0,1,255.72,183.91Zm-.86-36-1.19,2.76-1.24-2.74-3,.35,1.76-2.45-1.8-2.42,3,.3,1.19-2.77,1.24,2.75,3-.35-1.76,2.45,1.8,2.42Zm6.13,36a1.34,1.34,0,1,1,1.16-1.49A1.34,1.34,0,0,1,261,183.88Zm5.27,0a1.34,1.34,0,1,1-.33-2.65,1.33,1.33,0,0,1,1.49,1.16A1.34,1.34,0,0,1,266.26,183.86Zm5.27,0a1.34,1.34,0,1,1-.33-2.65,1.31,1.31,0,0,1,1.48,1.16A1.34,1.34,0,0,1,271.53,183.91Zm5.26.1a1.34,1.34,0,0,1-.33-2.66,1.34,1.34,0,0,1,.33,2.66Zm5.27.11a1.35,1.35,0,0,1-1.49-1.16,1.34,1.34,0,1,1,1.49,1.16Zm5.26.17a1.33,1.33,0,1,1-.32-2.65,1.32,1.32,0,0,1,1.48,1.16A1.34,1.34,0,0,1,287.32,184.29Zm5.27.22a1.34,1.34,0,1,1,1.16-1.49A1.34,1.34,0,0,1,292.59,184.51Zm5.26.26a1.34,1.34,0,1,1,1.16-1.49A1.34,1.34,0,0,1,297.85,184.77Zm5.26.26a1.34,1.34,0,1,1,1.16-1.49A1.34,1.34,0,0,1,303.11,185Zm1.74-19.38c-2.58,1.72-6.5,3.26-12.33,3.41-13.72.37-33.16,3.34-33.69-4.58-.12-1.92-.32-5.09-.54-8.78h47.9Zm3.52,19.68a1.34,1.34,0,1,1,1.16-1.49A1.34,1.34,0,0,1,308.37,185.33Zm2.51-14.65-1.62-.18-.66,1.5-.66-1.5-1.63.18,1-1.33-1-1.32,1.63.18.66-1.5.66,1.5,1.62-.18-1,1.32Zm12.92,13.26a1.34,1.34,0,0,1,1.49,1.16,1.34,1.34,0,0,1-2.66.33A1.34,1.34,0,0,1,323.8,183.94Zm-5.25-.51a1.34,1.34,0,1,1-1.16,1.5A1.34,1.34,0,0,1,318.55,183.43ZM313.3,183a1.34,1.34,0,0,1,1.49,1.16A1.34,1.34,0,1,1,313.3,183Zm-1.63-33.37-.94,2.16-1-2.15-2.34.28,1.37-1.91-1.41-1.89,2.35.24.92-2.17,1,2.15,2.34-.28L312.6,148,314,149.9Zm5.12-27.61-2,2.7.69,3L312.34,132l-1.16-5.11,2-2.7-.68-3,1.91-2.57-.59-2.63,2-2.7-.68-3,3.13-4.21,1.15,5.11-2,2.7.68,3-1.92,2.57Zm24.07,29.87a1.36,1.36,0,1,1,1.18-1.51A1.35,1.35,0,0,1,340.86,151.93Zm3.11-4.34a1.36,1.36,0,1,1,1.18-1.51A1.36,1.36,0,0,1,344,147.59Zm3.11-4.34a1.36,1.36,0,0,1-1.51-1.18,1.36,1.36,0,1,1,2.69-.33A1.37,1.37,0,0,1,347.08,143.25Zm3.11-4.34a1.37,1.37,0,0,1-1.51-1.18,1.35,1.35,0,0,1,2.68-.34A1.36,1.36,0,0,1,350.19,138.91Zm3.11-4.35a1.36,1.36,0,1,1,1.17-1.51A1.36,1.36,0,0,1,353.3,134.56Zm3.1-4.34a1.36,1.36,0,1,1-.33-2.69,1.36,1.36,0,0,1,.33,2.69Zm3.12-4.34a1.36,1.36,0,1,1-.34-2.69,1.34,1.34,0,0,1,1.51,1.18A1.36,1.36,0,0,1,359.52,125.88Zm3.1-4.35a1.35,1.35,0,0,1-1.51-1.17,1.36,1.36,0,1,1,1.51,1.17Zm3.11-4.34a1.36,1.36,0,1,1,1.18-1.51A1.36,1.36,0,0,1,365.73,117.19Zm3.11-4.34a1.36,1.36,0,1,1-.33-2.69,1.34,1.34,0,0,1,1.51,1.18A1.36,1.36,0,0,1,368.84,112.85Zm3.11-4.34a1.37,1.37,0,0,1-1.51-1.18,1.36,1.36,0,0,1,2.69-.34A1.37,1.37,0,0,1,372,108.51Zm3.11-4.35a1.36,1.36,0,1,1,1.18-1.51A1.36,1.36,0,0,1,375.06,104.16Zm3.11-4.34a1.36,1.36,0,0,1-1.51-1.18,1.36,1.36,0,0,1,2.69-.33A1.37,1.37,0,0,1,378.17,99.82Z"/></g></g></svg>