<svg xmlns="http://www.w3.org/2000/svg" viewBox="0 0 507.25 175.25"><defs><style>.cls-1{fill:#fff;}.cls-2{fill:#231815;}</style></defs><g id="レイヤー_2" data-name="レイヤー 2"><g id="logo"><path class="cls-1" d="M65.33,132.74a21.3,21.3,0,0,1-2.8-6.51,27.14,27.14,0,0,1-.72-5.9V23.4A20.87,20.87,0,0,1,66.36,9.74Q70.91,4.14,80.63,0L28,.2,0,14.94l24.9,45L17.7,19.36l16.46-9.7h9.5c-.44.5-.88,1-1.29,1.51a25.17,25.17,0,0,0-4.75,7.56q-1.87,4.45-1.87,14.6v87.21a22.91,22.91,0,0,1-4.64,14.07C28,138.76,23.28,142.2,16.93,145h63.7a35.57,35.57,0,0,1-9.72-5.7A24.59,24.59,0,0,1,65.33,132.74Zm-43.23-81L5.3,16.36l4.06-1.92ZM63.31,8.67l-.08.09A.39.39,0,0,1,63.31,8.67ZM57.76,132.16a7,7,0,0,1-3-5.94V18.74l8.36-9.85c-.64.82-2.84,4-4.08,10.39-.66,3.38-.68,7.72-.68,13v85.84a66.55,66.55,0,0,0,.17,8,9.27,9.27,0,0,0,2,4.68Z"/><path class="cls-2" d="M426.62,145h6.56c.33-1.28.62-2.59.88-3.95A39.42,39.42,0,0,1,426.62,145Z"/><path class="cls-1" d="M476.15,134.61a22.85,22.85,0,0,1-4.65-14.07V33.33q0-10.14-1.87-14.6a25,25,0,0,0-4.75-7.56c-.41-.5-.85-1-1.29-1.51h9.5l16.47,9.7L482.35,59.9l24.9-45L479.28.2,426.62,0q9.72,4.14,14.27,9.74a20.87,20.87,0,0,1,4.55,13.66v96.93a27.14,27.14,0,0,1-.72,5.9,21.3,21.3,0,0,1-2.8,6.51,27.51,27.51,0,0,1-7.86,8.28c-.26,1.36-.55,2.67-.88,3.95h57.14C484,142.2,479.27,138.76,476.15,134.61ZM502,16.36l-16.8,35.42,12.74-37.34ZM452.49,126.22a7,7,0,0,1-3,5.94l-2.78-1.36a9.27,9.27,0,0,0,2-4.68,66.55,66.55,0,0,0,.17-8V32.25c0-5.25,0-9.59-.68-13-1.24-6.39-3.44-9.57-4.08-10.39l8.36,9.85Z"/><path class="cls-2" d="M310.51,0l1.19.62.64-.62Z"/><path class="cls-1" d="M307.3,4.91,311.7.62,310.51,0H268.35l12.89,6V137.32H263.75q-7.69,0-15.47-5.38a64.26,64.26,0,0,1-14.49-14.21,109.29,109.29,0,0,1-12-20.16,114.43,114.43,0,0,1-8-23.43,92.66,92.66,0,0,1-2.21-23.91,54.11,54.11,0,0,1,5.09-21.42A75,75,0,0,1,229.17,7.69L238,0H189.62l14.22,4.91c2.38,1.09,5.78,1.71,6.3,3.25a5.24,5.24,0,0,1-1,4.79c-8,9.35-14.47,26.17-17.36,36a74.09,74.09,0,0,0-2.88,28.62A72.77,72.77,0,0,0,190.55,87a93,93,0,0,0-14.87-11.41,173.44,173.44,0,0,0-20.94-11A182.49,182.49,0,0,0,133,56.47c-5.81-1.74-11.28-3.17-16.45-4.34V7.77q16.05.59,27.29,6,12.59,6,18.15,15.07A28.44,28.44,0,0,1,165,35.72a41.15,41.15,0,0,1,1.53,8,44.9,44.9,0,0,1,0,8.36A37.34,37.34,0,0,1,165,59.92l2.87,1q10.76-10.17,10.76-22.47,0-11.52-5.47-18.92A39.65,39.65,0,0,0,159.35,7.78a63,63,0,0,0-18.44-6.05A114.48,114.48,0,0,0,121.61,0H81.48l9,6V139L81.51,145l3.81,0h40.13l-9-5.34V56.41q5.31,1,9.63,2.07a88,88,0,0,1,11,3.46,91.77,91.77,0,0,1,10.19,4.71q5,2.68,10.75,6.52a86.34,86.34,0,0,1,18.25,15.56,46.71,46.71,0,0,1,9.79,17.67,59,59,0,0,1,1.92,12.39,64.92,64.92,0,0,1-.67,13.63,48.93,48.93,0,0,1-3.75,12.77,26.91,26.91,0,0,1-7.29,9.79q-10.75,10.77-24.58,12.4t-29-3.95a58.3,58.3,0,0,1-13.63-8.63c-.64-.77-1.31-1-2-.58s-.74,1-.1,1.92A38.77,38.77,0,0,0,117.29,164a68.27,68.27,0,0,0,12.77,5.29,84,84,0,0,0,13.64,2.88,105.36,105.36,0,0,0,12.87.86A61.44,61.44,0,0,0,192,161.23a49.06,49.06,0,0,0,12.58-13.83,36.58,36.58,0,0,0,5.19-18.72,53.29,53.29,0,0,0-.38-7.21c1.18,1.25,2.39,2.48,3.65,3.65a78.12,78.12,0,0,0,22.09,14.5A62.09,62.09,0,0,0,260.29,145h48.39l-1.38-2.52ZM97.65,132.16H93.83V7.72l3.82,2.73Zm108,0a23.13,23.13,0,0,1-2.8,11,46.34,46.34,0,0,1-7.62,10,23.78,23.78,0,0,1-7.68,5,49.49,49.49,0,0,0,6.78-6.76,34,34,0,0,0,4.14-7.4,38.34,38.34,0,0,0,2-7.83c1.57-9.65.29-24.17.29-24.17l4.89,6.4Zm12.52-8.32c-2.41-2-4.88-4.45-7.31-6.8a72.12,72.12,0,0,1-6.74-7.82c-4.54-5.82-7.94-13.83-9.59-21.44a85.71,85.71,0,0,1-1.7-21.48s2.36,15.78,8.92,29.19a95.36,95.36,0,0,0,8.17,14.12c7.06,9.72,15.27,19.12,15.27,19.12A56.74,56.74,0,0,1,218.18,123.84Zm86.06,8.32h-3.82V10.45l3.82-2.73Z"/><path class="cls-2" d="M310.51,0l1.19.62.64-.62ZM426.62,145h6.56c.33-1.28.62-2.59.88-3.95A39.42,39.42,0,0,1,426.62,145Z"/><path class="cls-1" d="M434.77,120.22a77.59,77.59,0,0,0-8-23.71A109.88,109.88,0,0,0,413.74,77.4a183.56,183.56,0,0,0-15.37-15.94q-8-7.3-14.88-14.21L419.4,7.69,425.75,0H387.33l17.86,7.69L348.07,67.35V4.85L353.53,0H312.34l-.64.62L322,6V140.6l-4.4,4.4h43l-12.56-6.13V83.35l18.52-19c1,0,3,.74,5.86,2.21a103.84,103.84,0,0,1,10.08,6c3.83,2.56,7.94,5.57,12.29,9a128.76,128.76,0,0,1,12.39,11.24,101.29,101.29,0,0,1,10.46,12.67,46,46,0,0,1,6.53,13.16,55.61,55.61,0,0,1,2.4,16.22,63.67,63.67,0,0,1-1.73,14.32,76.55,76.55,0,0,1-4.22,12.67q-2.59,6-4.9,11.34c-.64,1.4-.48,2.07.49,2s2.2-1.18,3.74-3.36,3.51-5.12,5.57-8.46A65.9,65.9,0,0,0,431,152a63.92,63.92,0,0,0,2.16-7h-6.56a39.42,39.42,0,0,0,7.44-3.95c.23-1.11.43-2.25.61-3.41A63,63,0,0,0,434.77,120.22ZM329,132.16h-3.82V7.72L329,10.45Zm83.55-45.69A161.91,161.91,0,0,0,399,73c-3.92-3.64-7.52-6.62-9.74-8.28-1.5-1.11-12.83-10.51-12.83-10.51l4.4-4.89s6.5,6.23,14.1,13.29c5,4.63,8.8,8.41,12.69,12.46a80.88,80.88,0,0,1,8.74,11.11,147.15,147.15,0,0,1,8.09,13.48l1.35,2.62S419.85,94.89,412.59,86.47Z"/></g></g></svg>