<svg xmlns="http://www.w3.org/2000/svg" viewBox="0 0 40 40"><title>icon-sns-twitter</title><g data-name="レイヤー 2"><rect width="40" height="40" rx="3" ry="3" fill="#1da1f2"/><path d="M15.4 30.2A14.5 14.5 0 0 0 30 15.6v-.7a10.4 10.4 0 0 0 2.6-2.7 10.2 10.2 0 0 1-2.9.8 5.1 5.1 0 0 0 2.3-2.8 10.3 10.3 0 0 1-3.3 1.2 5.1 5.1 0 0 0-8.7 4.7 14.6 14.6 0 0 1-10.8-5.3 5.1 5.1 0 0 0 1.6 6.8 5.1 5.1 0 0 1-2.3-.6 5.1 5.1 0 0 0 4.1 5l-1.4.2h-1a5.1 5.1 0 0 0 4.8 3.6A10.3 10.3 0 0 1 8.6 28H7.5a14.5 14.5 0 0 0 7.9 2.3" fill="#fff"/><path fill="none" d="M0 0h40v40H0z"/></g></svg>