<svg xmlns="http://www.w3.org/2000/svg" viewBox="0 0 127.56 127.56"><defs><style>.cls-1{fill:#fff;}.cls-2{fill:#f3961a;}.cls-3{fill:#040000;fill-rule:evenodd;}</style></defs><g id="レイヤー_2" data-name="レイヤー 2"><g id="レイヤー_1-2" data-name="レイヤー 1"><rect class="cls-1" width="127.56" height="127.56" rx="16.8"/><path class="cls-2" d="M98.73,94.64c-39.42,18.76-63.88,3.07-79.54-6.47-1-.6-2.61.14-1.18,1.78,5.21,6.33,22.31,21.57,44.62,21.57s35.62-12.18,37.28-14.3.48-3.27-1.18-2.58Zm11.06-6.11c-1.05-1.38-6.43-1.64-9.82-1.22s-8.47,2.47-8,3.72c.23.46.69.26,3,0s8.87-1.06,10.24.72-2.09,10.34-2.72,11.72.23,1.73,1.38.81a17.88,17.88,0,0,0,4.55-6.65c1.36-3.39,2.19-8.1,1.38-9.15Z"/><path class="cls-3" d="M72.22,56.37c0,4.92.13,9-2.36,13.39-2,3.56-5.19,5.74-8.74,5.74-4.85,0-7.68-3.69-7.68-9.15,0-10.76,9.65-12.72,18.78-12.72ZM85,87.16a2.62,2.62,0,0,1-3,.3C77.79,84,77,82.36,74.73,79c-6.93,7.07-11.83,9.19-20.82,9.19C43.28,88.23,35,81.67,35,68.54c0-10.25,5.56-17.24,13.47-20.65,6.86-3,16.43-3.55,23.75-4.39V41.87c0-3,.24-6.56-1.52-9.15-1.55-2.33-4.5-3.29-7.09-3.29-4.82,0-9.12,2.47-10.17,7.59a2.64,2.64,0,0,1-2.18,2.31L39,38a2.22,2.22,0,0,1-1.88-2.64C39.94,20.51,53.35,16,65.37,16c6.14,0,14.17,1.64,19,6.29C90.54,28.06,90,35.72,90,44.05V63.74c0,5.92,2.45,8.51,4.76,11.71.82,1.14,1,2.51,0,3.36C92.11,81,87.52,85,85,87.19l0,0"/><path class="cls-2" d="M98.73,94.64c-39.42,18.76-63.88,3.07-79.54-6.47-1-.6-2.61.14-1.18,1.78,5.21,6.33,22.31,21.57,44.62,21.57s35.62-12.18,37.28-14.3.48-3.27-1.18-2.58Zm11.06-6.11c-1.05-1.38-6.43-1.64-9.82-1.22s-8.47,2.47-8,3.72c.23.46.69.26,3,0s8.87-1.06,10.24.72-2.09,10.34-2.72,11.72.23,1.73,1.38.81a17.88,17.88,0,0,0,4.55-6.65c1.36-3.39,2.19-8.1,1.38-9.15Z"/><path class="cls-3" d="M72.22,56.37c0,4.92.13,9-2.36,13.39-2,3.56-5.19,5.74-8.74,5.74-4.85,0-7.68-3.69-7.68-9.15,0-10.76,9.65-12.72,18.78-12.72ZM85,87.16a2.62,2.62,0,0,1-3,.3C77.79,84,77,82.36,74.73,79c-6.93,7.07-11.83,9.19-20.82,9.19C43.28,88.23,35,81.67,35,68.54c0-10.25,5.56-17.24,13.47-20.65,6.86-3,16.43-3.55,23.75-4.39V41.87c0-3,.24-6.56-1.52-9.15-1.55-2.33-4.5-3.29-7.09-3.29-4.82,0-9.12,2.47-10.17,7.59a2.64,2.64,0,0,1-2.18,2.31L39,38a2.22,2.22,0,0,1-1.88-2.64C39.94,20.51,53.35,16,65.37,16c6.14,0,14.17,1.64,19,6.29C90.54,28.06,90,35.72,90,44.05V63.74c0,5.92,2.45,8.51,4.76,11.71.82,1.14,1,2.51,0,3.36C92.11,81,87.52,85,85,87.19l0,0"/></g></g></svg>