<svg xmlns="http://www.w3.org/2000/svg" viewBox="0 0 105.48 34.99"><defs><style>.cls-1{fill:#fff;}</style></defs><g id="レイヤー_2" data-name="レイヤー 2"><g id="レイヤー_1-2" data-name="レイヤー 1"><path class="cls-1" d="M19.64,0,0,35H10.07l2.77-5.16H24L24.8,35H35.12l-5-35Zm-2.9,23.16,5-9.19,1.32,9.19ZM105.48,35l-5-35H90L70.36,35H80.44l2.89-5.16H94.55L95.29,35Zm-12-11.83H87.11L92.27,14l1.33,9.29ZM76,0,65.33,19.38,63.31,0H53.62L45.44,17.37,43.05,0H32.6l5,35H47.71l8-17.37L57.53,35H67.59L87.11,0Z"/></g></g></svg>