<svg xmlns="http://www.w3.org/2000/svg" viewBox="0 0 40 40"><defs><style>.cls-1{fill:#fe0000;}</style></defs><g id="レイヤー_2" data-name="レイヤー 2"><g id="logos"><rect class="cls-1" width="40" height="40"/><rect x="0.59" y="0.59" width="38.83" height="31.49"/><rect x="0.59" y="32.73" width="38.83" height="6.68"/><path class="cls-1" d="M15,11v1.84a2.47,2.47,0,0,0-1.67-.62,2.08,2.08,0,0,0-2.23,1.88A2.08,2.08,0,0,0,13.31,16,2.42,2.42,0,0,0,15,15.32v.53h1.41V11Zm-1.24,4a1.16,1.16,0,0,1-1.27-1,1.16,1.16,0,0,1,1.27-1A1.16,1.16,0,0,1,15,14,1.16,1.16,0,0,1,13.74,15Z"/><rect class="cls-1" x="16.72" y="12.23" width="1.41" height="3.58"/><ellipse class="cls-1" cx="17.41" cy="11.51" rx="0.72" ry="0.54"/><path class="cls-1" d="M21.37,12.23c-1.24,0-2.82.36-2.82,1.23s1.8,1.27,2.75,1.27c1.23,0,.79.43.07.43a4.71,4.71,0,0,1-2.56-.75c-.35.36-.33,1.4,2.38,1.4,1.26,0,2.64-.45,2.64-1.19s-1.21-1.17-2.51-1.25-1-.42,0-.42a3.81,3.81,0,0,1,2.27.68C23.81,13.22,23.46,12.23,21.37,12.23Z"/><polygon class="cls-1" points="29.52 15.81 27.23 13.74 29.16 12.63 27.6 12.63 25.42 13.87 25.42 10.97 24.01 10.97 24.01 15.81 25.42 15.81 25.42 14.78 26.09 14.39 27.69 15.81 29.52 15.81"/><path class="cls-1" d="M8.61,19.8v2.79a2.48,2.48,0,0,1-2,.95c-1.46,0-1.44-1.06-1.44-1.45V19.8h-2v2.3A2.76,2.76,0,0,0,6.1,24.8a4.85,4.85,0,0,0,2.51-.86v.72h1.94V19.8Z"/><path class="cls-1" d="M13,24.68V21.89A2.49,2.49,0,0,1,15,21c1.46,0,1.44,1.06,1.44,1.44v2.29h2V22.39a2.76,2.76,0,0,0-2.93-2.71,4.77,4.77,0,0,0-2.51.87v-.73H11.08v4.86Z"/><path class="cls-1" d="M31.32,24.68V21.89a2.5,2.5,0,0,1,2-.94c1.45,0,1.43,1.06,1.43,1.44v2.29h2V22.39a2.76,2.76,0,0,0-2.93-2.71,4.8,4.8,0,0,0-2.51.87v-.73H29.38v4.86Z"/><rect class="cls-1" x="19.01" y="19.8" width="1.92" height="4.89"/><ellipse class="cls-1" cx="19.97" cy="18.83" rx="0.96" ry="0.79"/><path class="cls-1" d="M25.19,19.46c-2.15,0-3.89,1.17-3.89,2.61s1.74,2.62,3.89,2.62,3.89-1.17,3.89-2.62S27.33,19.46,25.19,19.46Zm0,4A1.67,1.67,0,0,1,23.35,22a1.67,1.67,0,0,1,1.83-1.43A1.66,1.66,0,0,1,27,22,1.66,1.66,0,0,1,25.18,23.45Z"/><polygon class="cls-1" points="11.3 35.72 11.1 36.22 11.96 36.22 11.43 36.94 11.96 36.94 12.45 36.22 12.93 36.22 13.13 35.72 11.3 35.72"/><polygon class="cls-1" points="13.12 35.49 13.52 35.49 13.76 35.1 13.36 35.1 13.12 35.49"/><polygon class="cls-1" points="13.15 35.1 11.8 35.1 11.43 35.49 12.92 35.49 13.15 35.1"/><polygon class="cls-1" points="13.96 35.1 13.73 35.49 14.08 35.49 14.3 35.1 13.96 35.1"/><polygon class="cls-1" points="14.7 35.72 13.57 36.07 13.44 36.51 13.9 36.35 13.73 36.94 14.09 36.94 14.3 36.21 14.7 36.07 14.7 35.72"/><polygon class="cls-1" points="17.24 36.94 16.45 36.12 17.15 35.34 17.15 35.1 15.73 35.1 15.51 35.49 16.45 35.49 15.05 36.94 15.71 36.94 16.19 36.41 16.71 36.94 17.24 36.94"/><polygon class="cls-1" points="17.65 35.88 18.28 35.1 20 35.1 20 35.46 18.69 36.94 17.96 36.94 19.31 35.49 18.53 35.49 18.21 35.87 17.65 35.88"/><polygon class="cls-1" points="20.97 35.1 20.97 35.49 21.85 35.49 21.41 36.56 20.6 36.56 20.45 36.94 22.34 36.94 22.34 36.58 21.94 36.58 22.34 35.49 22.34 35.1 20.97 35.1"/><polygon class="cls-1" points="23.44 35.6 24.71 35.6 24.91 35.1 23.61 35.1 23.44 35.6"/><polygon class="cls-1" points="22.88 36.94 24.49 36.94 24.66 36.5 22.95 36.5 22.88 36.94"/><polygon class="cls-1" points="26.93 35.51 26.93 35.18 26.42 35.18 26.42 35.51 25.37 35.51 25.37 35.86 26.02 35.86 24.98 36.94 25.64 36.94 26.21 36.33 26.08 36.94 26.52 36.94 26.77 35.86 27.31 35.86 27.31 35.51 26.93 35.51"/><polygon class="cls-1" points="27.84 35.6 28.65 35.6 28.81 35.18 27.97 35.18 27.84 35.6"/><polygon class="cls-1" points="28.68 35.87 27.77 36.94 28.33 36.94 29.22 35.87 28.68 35.87"/></g></g></svg>